<?xml version="1.0" encoding="UTF-8"?>
<svg width="324px" height="86px" viewBox="0 0 324 86" version="1.1" xmlns="http://www.w3.org/2000/svg" xmlns:xlink="http://www.w3.org/1999/xlink">
    <!-- Generator: Sketch 44.1 (41455) - http://www.bohemiancoding.com/sketch -->
    <title>Group</title>
    <desc>Created with Sketch.</desc>
    <defs></defs>
    <g id="Page-1" stroke="none" stroke-width="1" fill="none" fill-rule="evenodd">
        <g id="Group" fill="#EEEEEE">
            <polygon id="Shape" fill-rule="nonzero" points="37.8506691 0 0 65.5793808 14.4314256 65.6218319 37.8506691 24.9437376 50.5549161 46.7735657 64.814123 46.7735657"></polygon>
            <polygon id="Shape" fill-rule="nonzero" points="11 85.7760628 86.7013382 85.7760628 79.530552 73.1930721 32.6047076 73.2804714 45.1342401 51.363244 38.0058846 39 11 85.7735657"></polygon>
            <polygon id="Shape" fill-rule="nonzero" points="54.8155993 12.4930943 78.3646308 53.1711886 53.1308514 53.2161368 46 65.5793808 99.9693385 65.5369298 62.0737428 0"></polygon>
            <path d="M120.283203,62.6992188 L120.283203,31.6875 C120.283203,29.0976433 120.930658,27.0667391 122.225586,25.5947266 C123.520514,24.122714 125.551418,23.3867188 128.318359,23.3867188 L141.566406,23.3867188 C144.333347,23.3867188 146.364251,24.122714 147.65918,25.5947266 C148.954108,27.0667391 149.601562,29.0976433 149.601562,31.6875 L149.601562,62.6992188 C149.601562,65.2890754 148.954108,67.3199796 147.65918,68.7919922 C146.364251,70.2640048 144.333347,71 141.566406,71 L128.318359,71 C125.551418,71 123.520514,70.2640048 122.225586,68.7919922 C120.930658,67.3199796 120.283203,65.2890754 120.283203,62.6992188 Z M128.650391,61.0722656 C128.650391,62.6217525 129.303379,63.3964844 130.609375,63.3964844 L139.175781,63.3964844 C140.548184,63.3964844 141.234375,62.6217525 141.234375,61.0722656 L141.234375,33.3144531 C141.234375,31.7871017 140.570319,31.0234375 139.242188,31.0234375 L130.675781,31.0234375 C129.325514,31.0234375 128.650391,31.7871017 128.650391,33.3144531 L128.650391,61.0722656 Z M155.412109,31.3554688 L155.412109,23.3867188 L183.833984,23.3867188 L183.833984,31.3554688 C183.192054,31.1341135 182.516931,31.0234375 181.808594,31.0234375 L173.773438,31.0234375 L173.773438,71 L165.472656,71 L165.472656,31.0234375 L157.470703,31.0234375 C156.740231,31.0234375 156.05404,31.1341135 155.412109,31.3554688 Z M189.677734,62.6992188 L189.677734,31.6875 C189.677734,29.0976433 190.325189,27.0667391 191.620117,25.5947266 C192.915046,24.122714 194.94595,23.3867188 197.712891,23.3867188 L216.074219,23.3867188 L216.074219,31.6210938 C215.365882,31.2226543 214.31446,31.0234375 212.919922,31.0234375 L200.070312,31.0234375 C198.720045,31.0234375 198.044922,31.7871017 198.044922,33.3144531 L198.044922,61.0722656 C198.044922,62.6217525 198.69791,63.3964844 200.003906,63.3964844 L212.919922,63.3964844 C214.270189,63.3964844 215.321611,63.1862 216.074219,62.765625 L216.074219,71 L197.712891,71 C194.94595,71 192.915046,70.2640048 191.620117,68.7919922 C190.325189,67.3199796 189.677734,65.2890754 189.677734,62.6992188 Z M221.220703,62.6992188 L221.220703,31.6875 C221.220703,29.0976433 221.868158,27.0667391 223.163086,25.5947266 C224.458014,24.122714 226.488918,23.3867188 229.255859,23.3867188 L242.503906,23.3867188 C245.270847,23.3867188 247.301751,24.122714 248.59668,25.5947266 C249.891608,27.0667391 250.539062,29.0976433 250.539062,31.6875 L250.539062,62.6992188 C250.539062,65.2890754 249.891608,67.3199796 248.59668,68.7919922 C247.301751,70.2640048 245.270847,71 242.503906,71 L229.255859,71 C226.488918,71 224.458014,70.2640048 223.163086,68.7919922 C221.868158,67.3199796 221.220703,65.2890754 221.220703,62.6992188 Z M229.587891,61.0722656 C229.587891,62.6217525 230.240879,63.3964844 231.546875,63.3964844 L240.113281,63.3964844 C241.485684,63.3964844 242.171875,62.6217525 242.171875,61.0722656 L242.171875,33.3144531 C242.171875,31.7871017 241.507819,31.0234375 240.179688,31.0234375 L231.613281,31.0234375 C230.263014,31.0234375 229.587891,31.7871017 229.587891,33.3144531 L229.587891,61.0722656 Z M259.138672,71 L259.138672,23.3867188 L267.705078,23.3867188 L280.621094,55.4941406 L280.621094,23.3867188 L288.457031,23.3867188 L288.457031,71 L279.890625,71 L266.908203,38.8925781 L266.908203,71 L259.138672,71 Z M297.056641,71 L297.056641,23.3867188 L322.689453,23.3867188 L322.689453,30.890625 C321.981116,30.6471342 321.305993,30.5253906 320.664062,30.5253906 L305.423828,30.5253906 L305.423828,42.578125 L316.779297,42.578125 C317.421227,42.578125 318.074215,42.5117194 318.738281,42.3789062 L318.738281,49.7167969 C318.074215,49.5839837 317.421227,49.5175781 316.779297,49.5175781 L305.423828,49.5175781 L305.423828,63.8613281 L321.660156,63.8613281 C322.4349,63.8613281 323.098956,63.7506521 323.652344,63.5292969 L323.652344,71 L297.056641,71 Z" id="OTCONE"></path>
        </g>
    </g>
</svg>